<svg width="134" height="111" viewBox="0 0 134 111" fill="none" xmlns="http://www.w3.org/2000/svg">
<g clip-path="url(#clip0_4_62)">
<path d="M131.544 69.9266C130.015 68.8614 125.352 67.7238 124.057 68.5098C122.845 69.2406 118.78 70.1024 119.408 72.8912C119.968 75.3663 121.964 79.0858 122.379 80.7508C122.917 82.9191 120.455 84.1084 119.636 84.3669C116.542 85.339 115.62 82.2021 111.406 82.4261C107.007 82.6606 104.99 83.6706 102.755 83.1983C98.597 82.3193 97.9339 79.2995 97.1707 77.2795C96.6285 75.8385 98.3657 74.2976 98.6247 69.282C98.6799 68.2064 98.2379 66.0588 101.077 65.0281C102.907 64.3628 103.992 65.4004 106.361 65.7796C108.426 66.1105 110.225 65.6658 113.824 64.7765C117.053 63.9802 116.715 63.6251 118.6 63.3597C122.62 62.7943 123.65 64.4283 126.219 63.6182C129.383 62.6185 130.809 59.0817 130.995 58.5922C132.166 55.5655 133.354 51.7426 131.803 46.9854C131.631 46.4546 130.177 44.0208 128.574 41.0562C127.176 38.4605 125.021 38.2054 123.636 36.9403C123.58 36.892 123.501 36.8162 123.394 36.7231C122.959 36.3439 119.557 33.4552 115.889 33.9757C114.017 34.2411 114.214 35.0926 112.405 35.2649C110.412 35.4545 109.39 34.4962 107.369 33.8481C105.549 33.2621 103.701 33.4138 100.01 33.7206C95.209 34.117 92.8053 34.317 91.1027 35.782C89.1963 37.4229 88.661 39.6498 88.1326 41.8388C87.2519 45.4997 87.8114 48.6297 88.2604 51.0152C88.737 53.5317 89.0444 53.3972 89.8111 56.7858C90.6399 60.4571 90.8886 63.3321 90.9715 64.5179C91.3272 69.5129 91.5068 72.0122 90.3257 74.1839C89.7075 75.3215 90.6365 76.5452 87.0965 79.2099C83.4081 81.9849 80.8075 82.7605 79.654 82.7226C76.456 82.6123 72.1424 79.5167 69.9252 75.8627C67.7978 72.3569 66.9585 69.4233 66.6443 68.2754C66.1435 66.4518 65.4562 63.2838 65.7394 55.6483C66.0468 47.3405 67 47.2991 67.0311 41.0873C67.0691 33.207 69.8734 33.2311 70.4674 27.9189C70.6505 26.2815 71.2479 25.6748 71.6589 24.5235C72.5776 21.9449 70.495 20.7936 70.4432 14.4852C70.4329 13.1304 70.3569 12.4444 70.5019 11.4723C71.02 8.02512 69.1171 6.55661 68.1155 4.11254C67.3453 2.23726 65.4493 0.775653 63.4669 0.503324C59.8545 0.00692621 56.3111 3.49894 55.5927 6.8186C55.4787 7.33913 55.4477 7.79761 55.4822 8.22851C55.8137 12.4582 58.0655 13.1097 58.6906 16.9982C58.9116 18.3702 58.5766 18.2151 58.5801 24.7406C58.5801 25.0164 58.5974 25.2646 58.5697 25.6231C58.4074 28.012 58.062 29.9631 57.7892 31.2765C56.5459 30.0217 55.3717 29.2013 54.5601 28.698C51.0063 26.4952 47.1348 25.8816 44.4548 26.1781C43.8021 26.2505 43.0665 26.3229 42.1409 26.6435C40.3623 27.2605 39.7165 28.2154 36.7429 28.4705C34.6638 28.6497 29.9393 25.4611 27.3042 26.0368C25.3391 26.4642 24.5241 26.9158 23.9818 27.2916C22.8214 28.0982 16.7742 28.1844 15.6448 29.8356C14.7227 31.18 13.0857 30.9353 10.8685 33.9585C9.31782 36.075 12.1498 41.0425 11.4936 44.5965C11.3934 45.1377 10.6544 46.5787 9.51812 49.2261C8.50276 51.5875 10.9445 55.5966 10.8719 56.2102C10.4644 59.6849 15.2787 63.2666 15.6794 63.6182C19.2884 66.7862 26.8518 66.4001 28.2298 66.4484C30.1603 66.5173 32.1151 67.3205 32.1013 67.8652C32.0978 68.0548 31.5072 68.2409 28.3576 68.2375C21.2051 68.234 18.9119 67.2654 14.215 67.9341C12.5918 68.1651 10.9617 68.6442 9.19694 69.6508C8.35771 70.1265 7.49776 70.8401 6.5722 71.9949C3.81967 75.4387 4.80395 82.078 3.56756 83.874C1.36761 87.073 0.113949 86.356 0.663073 95.9495C0.987712 101.624 3.8473 102.596 4.20302 103.158C7.02117 107.584 14.1598 108.077 19.4369 108.442C24.3894 108.783 24.2236 107.977 28.8618 108.484C35.3926 109.197 35.8761 110.81 40.7387 110.759C43.2461 110.731 43.0768 110.38 51.1963 108.825C60.1308 107.115 60.9665 107.487 62.4274 106.119C64.1611 104.499 65.3561 102.168 66.3956 95.0084C67 90.8477 66.5545 90.9166 66.6235 89.4688C66.741 86.9834 66.8998 86.5904 66.406 85.1943C66.6166 85.2494 73.327 90.9097 75.4441 90.7339C77.5231 90.565 80.4656 89.4274 84.1264 88.738C87.4868 88.1037 87.9945 88.8621 89.5175 87.9899C92.2528 86.4284 92.3702 83.4638 93.9381 83.4534C95.0916 83.4465 95.3265 85.0495 97.4228 87.0626C99.716 89.2654 102.272 90.0686 103.363 90.4133C105.097 90.9614 105.49 90.727 111.237 90.9304C116.939 91.1303 117.095 91.382 119.37 91.1889C122.475 90.927 124.24 89.8445 126.761 89.5067C128.73 89.2413 132.266 84.2704 133.088 80.6164C133.289 79.7235 134.577 72.0397 131.538 69.9197L131.544 69.9266ZM101.464 43.1246C103.653 41.0183 104.596 39.9669 106.337 39.9118C106.623 39.9014 106.689 39.8738 108.868 39.8876C113.278 39.9152 113.095 39.8739 113.34 39.9049C115.699 40.2082 117.219 41.8629 119.795 44.6689C122.14 47.2233 123.912 48.5711 123.377 50.4775C122.931 52.0632 123.239 54.2694 121.083 55.4966C118.877 56.7514 113.282 57.5511 108.398 56.6652C105.867 56.2067 103.853 57.1961 101.46 55.6276C98.901 53.9488 99.1427 50.7946 98.8768 49.1847C98.5107 46.9579 99.5951 44.9206 101.46 43.128L101.464 43.1246ZM26.7102 58.8438C25.8468 58.6611 24.0613 58.3233 23.4742 57.0409C23.0183 56.0481 23.6745 55.3449 23.1322 54.4348C22.4588 53.3007 21.0325 53.7075 20.0516 52.7285C19.2573 51.9322 19.1779 50.6429 19.4818 48.4643C20.176 43.4589 20.618 40.2703 23.2462 37.9262C25.3322 36.0681 27.6254 35.782 31.1584 35.3373C38.4248 34.4273 43.7779 34.4893 46.0228 36.1026C47.0278 36.8265 47.8946 37.8607 48.2849 38.3605C48.5612 38.7156 48.9376 38.9776 49.3659 39.1086C49.9115 39.274 50.509 39.343 51.1928 39.8842C52.2496 40.7184 52.6502 42.0835 52.7331 42.4041C52.8989 43.0418 53.0819 48.2299 52.4465 51.3599C52.1598 52.7767 50.9234 57.7511 46.2403 60.6605C43.0147 62.6633 39.7925 62.6668 38.297 62.6461C33.3515 62.584 33.2341 60.2296 26.7102 58.8438ZM55.4166 95.5462C53.3997 96.5597 52.9783 94.4741 49.2277 96.2839C45.1145 98.2695 45.8086 102.513 42.2169 103.647C41.0012 104.03 40.1723 103.782 33.5138 101.458C25.5049 98.6659 25.8295 98.7245 25.4358 98.6384C18.1142 97.0871 14.146 100.048 11.9356 97.5352C11.4798 97.0182 11.0101 95.3084 10.9203 91.8267C10.8616 89.5584 10.7234 88.6621 11.5558 87.4108C12.4157 86.1147 11.7975 86.7421 14.4015 83.8947C15.0922 83.1397 15.555 82.7536 15.9487 82.0573C16.9883 80.2303 16.4737 78.2998 17.603 76.5349C18.7496 74.7423 25.6637 76.104 28.62 75.3456C30.6473 74.8251 31.3346 74.5596 32.1462 74.4286C34.7398 74.0081 36.736 74.2046 37.9137 74.3149C47.0692 75.1801 47.8739 73.915 51.3413 75.4731C53.0336 76.235 55.6238 77.183 56.7635 79.727C58.701 84.0498 57.2228 85.8079 57.1503 91.8163C57.1261 93.8812 57.0018 94.7465 55.4166 95.5428V95.5462Z" fill="black" stroke="black" stroke-miterlimit="10"/>
</g>
<defs>
<clipPath id="clip0_4_62">
<rect width="134" height="111" fill="white"/>
</clipPath>
</defs>
</svg>
