<svg width="76" height="68" viewBox="0 0 76 68" fill="none" xmlns="http://www.w3.org/2000/svg">
<g clip-path="url(#clip0_4_354)">
<g filter="url(#filter0_d_4_354)">
<path d="M69.7905 39.6485C69.037 39.1207 66.7406 38.557 66.1027 38.9464C65.5056 39.3086 63.5035 39.7356 63.8131 41.1174C64.0887 42.3438 65.0719 44.1868 65.276 45.0118C65.5413 46.0862 64.3285 46.6755 63.9254 46.8036C62.4012 47.2853 61.9471 45.7309 59.8718 45.8419C57.7047 45.9581 56.7113 46.4586 55.6107 46.2246C53.5627 45.789 53.2361 44.2927 52.8601 43.2918C52.5931 42.5778 53.4487 41.8143 53.5763 39.3291C53.6035 38.7961 53.3858 37.732 54.784 37.2213C55.6856 36.8916 56.2197 37.4058 57.3866 37.5937C58.4038 37.7576 59.29 37.5373 61.0625 37.0966C62.653 36.702 62.4863 36.5261 63.415 36.3946C65.3951 36.1145 65.902 36.9241 67.1675 36.5227C68.7257 36.0274 69.4282 34.2749 69.52 34.0323C70.0967 32.5326 70.6819 30.6384 69.9181 28.2812C69.833 28.0182 69.1169 26.8123 68.3276 25.3433C67.6387 24.0572 66.5773 23.9308 65.8951 23.3039C65.8679 23.28 65.8288 23.2424 65.7761 23.1963C65.5617 23.0084 63.8862 21.577 62.0797 21.835C61.1578 21.9665 61.2547 22.3884 60.3634 22.4738C59.3819 22.5677 58.8784 22.0929 57.8833 21.7718C56.9869 21.4814 56.0768 21.5565 54.2584 21.7086C51.894 21.905 50.7101 22.0041 49.8714 22.73C48.9325 23.543 48.6688 24.6465 48.4086 25.7311C47.9748 27.5451 48.2504 29.096 48.4715 30.278C48.7062 31.5249 48.8576 31.4583 49.2353 33.1373C49.6435 34.9564 49.766 36.3809 49.8068 36.9685C49.982 39.4435 50.0705 40.6819 49.4887 41.7579C49.1842 42.3216 49.6418 42.928 47.8982 44.2483C46.0815 45.6233 44.8007 46.0076 44.2325 45.9888C42.6574 45.9342 40.5328 44.4003 39.4407 42.5898C38.3929 40.8527 37.9795 39.3991 37.8247 38.8303C37.5781 37.9267 37.2396 36.357 37.3791 32.5736C37.5305 28.4572 37.9999 28.4367 38.0153 25.3587C38.034 21.4541 39.4152 21.466 39.7078 18.8339C39.7979 18.0225 40.0922 17.7219 40.2946 17.1514C40.7471 15.8738 39.7214 15.3033 39.6959 12.1775C39.6908 11.5062 39.6534 11.1663 39.7248 10.6846C39.9799 8.97657 39.0427 8.24893 38.5494 7.03791C38.1701 6.10872 37.2362 5.38449 36.2598 5.24956C34.4805 5.00359 32.7353 6.73387 32.3814 8.37875C32.3253 8.63667 32.31 8.86384 32.327 9.07735C32.4903 11.1732 33.5994 11.496 33.9073 13.4227C34.0161 14.1025 33.8511 14.0256 33.8528 17.259C33.8528 17.3957 33.8613 17.5187 33.8477 17.6963C33.7678 18.88 33.5977 19.8468 33.4633 20.4975C32.8509 19.8758 32.2726 19.4693 31.8728 19.2199C30.1225 18.1284 28.2156 17.8244 26.8956 17.9713C26.5741 18.0072 26.2118 18.043 25.7559 18.2019C24.8799 18.5076 24.5618 18.9808 23.0972 19.1072C22.0732 19.196 19.7462 17.616 18.4483 17.9013C17.4804 18.1131 17.079 18.3368 16.8119 18.523C16.2404 18.9227 13.2619 18.9654 12.7056 19.7836C12.2514 20.4497 11.4452 20.3284 10.3531 21.8264C9.58933 22.8752 10.9842 25.3365 10.661 27.0975C10.6117 27.3657 10.2476 28.0797 9.68799 29.3915C9.18789 30.5615 10.3905 32.548 10.3548 32.852C10.1541 34.5738 12.5253 36.3485 12.7226 36.5227C14.5002 38.0924 18.2255 37.9011 18.9042 37.925C19.8551 37.9592 20.8178 38.3572 20.811 38.627C20.8093 38.721 20.5185 38.8132 18.9671 38.8115C15.4443 38.8098 14.3148 38.3298 12.0014 38.6612C11.2019 38.7756 10.399 39.0131 9.5298 39.5118C9.11644 39.7475 8.69289 40.1011 8.23701 40.6733C6.88129 42.3797 7.36608 45.6694 6.75712 46.5593C5.67356 48.1444 5.05608 47.7892 5.32655 52.5427C5.48644 55.3542 6.8949 55.8359 7.0701 56.1143C8.45815 58.3075 11.9742 58.5517 14.5734 58.7328C17.0126 58.9019 16.931 58.5022 19.2155 58.7533C22.4321 59.1069 22.6703 59.9062 25.0653 59.8806C26.3003 59.8669 26.2169 59.6927 30.216 58.9224C34.6166 58.0752 35.0282 58.2597 35.7478 57.5816C36.6017 56.7788 37.1903 55.6241 37.7023 52.0764C37.9999 50.0148 37.7805 50.0489 37.8145 49.3315C37.8724 48.1 37.9506 47.9053 37.7074 47.2135C37.8111 47.2409 41.1162 50.0455 42.159 49.9584C43.183 49.8747 44.6323 49.3111 46.4354 48.9694C48.0905 48.6551 48.3405 49.0309 49.0907 48.5988C50.4379 47.825 50.4957 46.3561 51.268 46.351C51.8361 46.3475 51.9518 47.1418 52.9843 48.1393C54.1138 49.2308 55.3726 49.6287 55.9101 49.7996C56.764 50.0711 56.9579 49.955 59.7884 50.0558C62.5969 50.1548 62.6734 50.2795 63.7944 50.1839C65.3236 50.0541 66.1928 49.5177 67.4346 49.3503C68.4042 49.2188 70.146 46.7558 70.5509 44.9452C70.6495 44.5028 71.284 40.6955 69.7871 39.6451L69.7905 39.6485ZM54.9745 26.3682C56.053 25.3246 56.5174 24.8036 57.3747 24.7763C57.5159 24.7711 57.5482 24.7575 58.6215 24.7643C60.7938 24.778 60.7036 24.7575 60.8244 24.7729C61.9862 24.9232 62.7346 25.743 64.0036 27.1334C65.1586 28.3991 66.0312 29.0669 65.7676 30.0115C65.5481 30.7972 65.6995 31.8904 64.6381 32.4985C63.5511 33.1202 60.7955 33.5165 58.3902 33.0775C57.1433 32.8503 56.1516 33.3406 54.9728 32.5634C53.7124 31.7315 53.8314 30.1687 53.7005 29.371C53.5201 28.2676 54.0543 27.2581 54.9728 26.3699L54.9745 26.3682ZM18.1557 34.157C17.7305 34.0665 16.851 33.8991 16.5619 33.2637C16.3373 32.7718 16.6605 32.4233 16.3935 31.9724C16.0618 31.4104 15.3592 31.612 14.8761 31.1269C14.4849 30.7323 14.4458 30.0935 14.5955 29.014C14.9374 26.5339 15.1551 24.9539 16.4496 23.7924C17.477 22.8718 18.6065 22.73 20.3467 22.5097C23.9256 22.0587 26.5622 22.0895 27.6679 22.8888C28.1629 23.2475 28.5898 23.76 28.7821 24.0076C28.9181 24.1836 29.1036 24.3134 29.3145 24.3783C29.5832 24.4603 29.8775 24.4944 30.2143 24.7626C30.7348 25.176 30.9322 25.8524 30.973 26.0112C31.0546 26.3272 31.1448 28.8978 30.8318 30.4488C30.6906 31.1508 30.0816 33.6156 27.7751 35.0572C26.1863 36.0496 24.5992 36.0513 23.8627 36.041C21.4268 36.0103 21.369 34.8437 18.1557 34.157ZM32.2947 52.3429C31.3013 52.8451 31.0938 51.8117 29.2464 52.7084C27.2205 53.6923 27.5624 55.7949 25.7934 56.3569C25.1946 56.5464 24.7863 56.4235 21.5068 55.2722C17.5621 53.8887 17.722 53.9177 17.528 53.875C13.9219 53.1064 11.9674 54.5736 10.8787 53.3284C10.6542 53.0722 10.4228 52.225 10.3786 50.4999C10.3497 49.376 10.2817 48.9319 10.6916 48.3118C11.1152 47.6696 10.8107 47.9805 12.0932 46.5696C12.4335 46.1955 12.6614 46.0042 12.8553 45.6592C13.3673 44.7539 13.1139 43.7974 13.6701 42.9228C14.2348 42.0346 17.6403 42.7093 19.0964 42.3336C20.0949 42.0756 20.4334 41.9441 20.8331 41.8792C22.1106 41.6708 23.0938 41.7682 23.6739 41.8228C28.1833 42.2516 28.5796 41.6247 30.2875 42.3968C31.121 42.7743 32.3968 43.244 32.9581 44.5045C33.9124 46.6465 33.1843 47.5176 33.1486 50.4947C33.1367 51.5179 33.0755 51.9466 32.2947 52.3412V52.3429Z" fill="white"/>
<path d="M69.7905 39.6485C69.037 39.1207 66.7406 38.557 66.1027 38.9464C65.5056 39.3086 63.5035 39.7356 63.8131 41.1174C64.0887 42.3438 65.0719 44.1868 65.276 45.0118C65.5413 46.0862 64.3285 46.6755 63.9254 46.8036C62.4012 47.2853 61.9471 45.7309 59.8718 45.8419C57.7047 45.9581 56.7113 46.4586 55.6107 46.2246C53.5627 45.789 53.2361 44.2927 52.8601 43.2918C52.5931 42.5778 53.4487 41.8143 53.5763 39.3291C53.6035 38.7961 53.3858 37.732 54.784 37.2213C55.6856 36.8916 56.2197 37.4058 57.3866 37.5937C58.4038 37.7576 59.29 37.5373 61.0625 37.0966C62.653 36.702 62.4863 36.5261 63.415 36.3946C65.3951 36.1145 65.902 36.9241 67.1675 36.5227C68.7257 36.0274 69.4282 34.2749 69.52 34.0323C70.0967 32.5326 70.6819 30.6384 69.9181 28.2812C69.833 28.0182 69.1169 26.8123 68.3276 25.3433C67.6387 24.0572 66.5773 23.9308 65.8951 23.3039C65.8679 23.28 65.8288 23.2424 65.7761 23.1963C65.5617 23.0084 63.8862 21.577 62.0797 21.835C61.1578 21.9665 61.2547 22.3884 60.3634 22.4738C59.3819 22.5677 58.8784 22.0929 57.8833 21.7718C56.9869 21.4814 56.0768 21.5565 54.2584 21.7086C51.894 21.905 50.7101 22.0041 49.8714 22.73C48.9325 23.543 48.6688 24.6465 48.4086 25.7311C47.9748 27.5451 48.2504 29.096 48.4715 30.278C48.7062 31.5249 48.8576 31.4583 49.2353 33.1373C49.6435 34.9564 49.766 36.3809 49.8068 36.9685C49.982 39.4435 50.0705 40.6819 49.4887 41.7579C49.1842 42.3216 49.6418 42.928 47.8982 44.2483C46.0815 45.6233 44.8007 46.0076 44.2325 45.9888C42.6574 45.9342 40.5328 44.4003 39.4407 42.5898C38.3929 40.8527 37.9795 39.3991 37.8247 38.8303C37.5781 37.9267 37.2396 36.357 37.3791 32.5736C37.5305 28.4572 37.9999 28.4367 38.0153 25.3587C38.034 21.4541 39.4152 21.466 39.7078 18.8339C39.7979 18.0225 40.0922 17.7219 40.2946 17.1514C40.7471 15.8738 39.7214 15.3033 39.6959 12.1775C39.6908 11.5062 39.6534 11.1663 39.7248 10.6846C39.9799 8.97657 39.0427 8.24893 38.5494 7.03791C38.1701 6.10872 37.2362 5.38449 36.2598 5.24956C34.4805 5.00359 32.7353 6.73387 32.3814 8.37875C32.3253 8.63667 32.31 8.86384 32.327 9.07735C32.4903 11.1732 33.5994 11.496 33.9073 13.4227C34.0161 14.1025 33.8511 14.0256 33.8528 17.259C33.8528 17.3957 33.8613 17.5187 33.8477 17.6963C33.7678 18.88 33.5977 19.8468 33.4633 20.4975C32.8509 19.8758 32.2726 19.4693 31.8728 19.2199C30.1225 18.1284 28.2156 17.8244 26.8956 17.9713C26.5741 18.0072 26.2118 18.043 25.7559 18.2019C24.8799 18.5076 24.5618 18.9808 23.0972 19.1072C22.0732 19.196 19.7462 17.616 18.4483 17.9013C17.4804 18.1131 17.079 18.3368 16.8119 18.523C16.2404 18.9227 13.2619 18.9654 12.7056 19.7836C12.2514 20.4497 11.4452 20.3284 10.3531 21.8264C9.58933 22.8752 10.9842 25.3365 10.661 27.0975C10.6117 27.3657 10.2476 28.0797 9.68799 29.3915C9.18789 30.5615 10.3905 32.548 10.3548 32.852C10.1541 34.5738 12.5253 36.3485 12.7226 36.5227C14.5002 38.0924 18.2255 37.9011 18.9042 37.925C19.8551 37.9592 20.8178 38.3572 20.811 38.627C20.8093 38.721 20.5185 38.8132 18.9671 38.8115C15.4443 38.8098 14.3148 38.3298 12.0014 38.6612C11.2019 38.7756 10.399 39.0131 9.5298 39.5118C9.11644 39.7475 8.69289 40.1011 8.23701 40.6733C6.88129 42.3797 7.36608 45.6694 6.75712 46.5593C5.67356 48.1444 5.05608 47.7892 5.32655 52.5427C5.48644 55.3542 6.8949 55.8359 7.0701 56.1143C8.45815 58.3075 11.9742 58.5517 14.5734 58.7328C17.0126 58.9019 16.931 58.5022 19.2155 58.7533C22.4321 59.1069 22.6703 59.9062 25.0653 59.8806C26.3003 59.8669 26.2169 59.6927 30.216 58.9224C34.6166 58.0752 35.0282 58.2597 35.7478 57.5816C36.6017 56.7788 37.1903 55.6241 37.7023 52.0764C37.9999 50.0148 37.7805 50.0489 37.8145 49.3315C37.8724 48.1 37.9506 47.9053 37.7074 47.2135C37.8111 47.2409 41.1162 50.0455 42.159 49.9584C43.183 49.8747 44.6323 49.3111 46.4354 48.9694C48.0905 48.6551 48.3405 49.0309 49.0907 48.5988C50.4379 47.825 50.4957 46.3561 51.268 46.351C51.8361 46.3475 51.9518 47.1418 52.9843 48.1393C54.1138 49.2308 55.3726 49.6287 55.9101 49.7996C56.764 50.0711 56.9579 49.955 59.7884 50.0558C62.5969 50.1548 62.6734 50.2795 63.7944 50.1839C65.3236 50.0541 66.1928 49.5177 67.4346 49.3503C68.4042 49.2188 70.146 46.7558 70.5509 44.9452C70.6495 44.5028 71.284 40.6955 69.7871 39.6451L69.7905 39.6485ZM54.9745 26.3682C56.053 25.3246 56.5174 24.8036 57.3747 24.7763C57.5159 24.7711 57.5482 24.7575 58.6215 24.7643C60.7938 24.778 60.7036 24.7575 60.8244 24.7729C61.9862 24.9232 62.7346 25.743 64.0036 27.1334C65.1586 28.3991 66.0312 29.0669 65.7676 30.0115C65.5481 30.7972 65.6995 31.8904 64.6381 32.4985C63.5511 33.1202 60.7955 33.5165 58.3902 33.0775C57.1433 32.8503 56.1516 33.3406 54.9728 32.5634C53.7124 31.7315 53.8314 30.1687 53.7005 29.371C53.5201 28.2676 54.0543 27.2581 54.9728 26.3699L54.9745 26.3682ZM18.1557 34.157C17.7305 34.0665 16.851 33.8991 16.5619 33.2637C16.3373 32.7718 16.6605 32.4233 16.3935 31.9724C16.0618 31.4104 15.3592 31.612 14.8761 31.1269C14.4849 30.7323 14.4458 30.0935 14.5955 29.014C14.9374 26.5339 15.1551 24.9539 16.4496 23.7924C17.477 22.8718 18.6065 22.73 20.3467 22.5097C23.9256 22.0587 26.5622 22.0895 27.6679 22.8888C28.1629 23.2475 28.5898 23.76 28.7821 24.0076C28.9181 24.1836 29.1036 24.3134 29.3145 24.3783C29.5832 24.4603 29.8775 24.4944 30.2143 24.7626C30.7348 25.176 30.9322 25.8524 30.973 26.0112C31.0546 26.3272 31.1448 28.8978 30.8318 30.4488C30.6906 31.1508 30.0816 33.6156 27.7751 35.0572C26.1863 36.0496 24.5992 36.0513 23.8627 36.041C21.4268 36.0103 21.369 34.8437 18.1557 34.157ZM32.2947 52.3429C31.3013 52.8451 31.0938 51.8117 29.2464 52.7084C27.2205 53.6923 27.5624 55.7949 25.7934 56.3569C25.1946 56.5464 24.7863 56.4235 21.5068 55.2722C17.5621 53.8887 17.722 53.9177 17.528 53.875C13.9219 53.1064 11.9674 54.5736 10.8787 53.3284C10.6542 53.0722 10.4228 52.225 10.3786 50.4999C10.3497 49.376 10.2817 48.9319 10.6916 48.3118C11.1152 47.6696 10.8107 47.9805 12.0932 46.5696C12.4335 46.1955 12.6614 46.0042 12.8553 45.6592C13.3673 44.7539 13.1139 43.7974 13.6701 42.9228C14.2348 42.0346 17.6403 42.7093 19.0964 42.3336C20.0949 42.0756 20.4334 41.9441 20.8331 41.8792C22.1106 41.6708 23.0938 41.7682 23.6739 41.8228C28.1833 42.2516 28.5796 41.6247 30.2875 42.3968C31.121 42.7743 32.3968 43.244 32.9581 44.5045C33.9124 46.6465 33.1843 47.5176 33.1486 50.4947C33.1367 51.5179 33.0755 51.9466 32.2947 52.3412V52.3429Z" stroke="white" stroke-miterlimit="10"/>
</g>
</g>
<defs>
<filter id="filter0_d_4_354" x="0.763184" y="4.72583" width="74.5054" height="63.6553" filterUnits="userSpaceOnUse" color-interpolation-filters="sRGB">
<feFlood flood-opacity="0" result="BackgroundImageFix"/>
<feColorMatrix in="SourceAlpha" type="matrix" values="0 0 0 0 0 0 0 0 0 0 0 0 0 0 0 0 0 0 127 0" result="hardAlpha"/>
<feOffset dy="4"/>
<feGaussianBlur stdDeviation="2"/>
<feComposite in2="hardAlpha" operator="out"/>
<feColorMatrix type="matrix" values="0 0 0 0 0 0 0 0 0 0 0 0 0 0 0 0 0 0 0.25 0"/>
<feBlend mode="normal" in2="BackgroundImageFix" result="effect1_dropShadow_4_354"/>
<feBlend mode="normal" in="SourceGraphic" in2="effect1_dropShadow_4_354" result="shape"/>
</filter>
<clipPath id="clip0_4_354">
<rect width="76" height="68" fill="white"/>
</clipPath>
</defs>
</svg>
